<svg version="1.2" xmlns="http://www.w3.org/2000/svg" viewBox="0 0 300 300" width="300" height="300"><style>.a{fill:#fff}.b{fill:#e50914}</style><path fill-rule="evenodd" d="m150 300c-82.9 0-150-67-150-150 0-82.9 67.1-150 150-150 83 0 150 67.1 150 150 0 83-67 150-150 150z"/><path class="a" d="m69.6 185h-27v-70.1h22.7q20.8 0 31.4 8.7 10.5 8.8 10.5 26.1 0 10.5-4.7 18.4-4.8 7.9-13.2 12.5-8.5 4.4-19.7 4.4zm-10.9-55.8v41.5h10.2q10.8 0 16.3-5.2 5.6-5.2 5.6-15.3 0-10.6-5.8-15.8-5.7-5.2-17.7-5.2zm85.9 55.8h-27v-70.1h22.7q20.8 0 31.4 8.7 10.5 8.8 10.5 26.1 0 10.5-4.7 18.4-4.8 7.9-13.3 12.5-8.4 4.4-19.6 4.4zm-10.9-55.8v41.5h10.2q10.8 0 16.3-5.2 5.6-5.2 5.6-15.3 0-10.6-5.8-15.8-5.7-5.2-17.7-5.2z"/><path class="b" d="m218.6 185h-27l12.8-70.1h22.7q20.8 0 29.7 8.7 9 8.8 5.9 26.1-2 10.5-8.1 18.4-6.2 7.9-15.5 12.5-9.3 4.4-20.5 4.4zm-0.7-55.8l-7.6 41.5h10.2q10.8 0 17.2-5.2 6.6-5.2 8.5-15.3 1.9-10.6-3-15.8-4.8-5.2-16.7-5.2z"/></svg>