<svg version="1.2" xmlns="http://www.w3.org/2000/svg" viewBox="0 0 680 300" width="680" height="300"><style>.a{fill:#fff}</style><path class="a" d="m246.1 176.9q-14.4 0-22.3-5.8-7.9-5.9-9-17.3l16.8-2.3q0.7 5.5 4.5 8.4 3.9 2.8 10.7 2.8 5.8 0 8.9-1.9 3.2-1.9 3.2-5.5 0-3.2-3.3-5.1-3.3-1.9-10.9-3.6-8.1-1.9-13.7-4.5-5.7-2.7-8.5-7-2.9-4.3-2.9-10.8 0-6.9 3.8-12.3 3.7-5.3 10.4-8.2 6.7-3.1 15.5-3.1 11.5 0 18.8 5.6 7.2 5.5 8.3 15.1l-15.7 2.5q-0.9-4.2-4.1-6.5-3.2-2.4-8-2.4-4.9 0-7.8 2.1-3 2.1-3 5.8 0 3.3 2.8 5.4 2.9 2 10.5 3.8 8 1.9 13.9 4.3 5.8 2.3 8.9 6.4 3.2 4 3.2 11 0 6.8-3.9 12.1-3.8 5.2-10.9 8.1-6.9 2.9-16.2 2.9zm-2.9 0q-14.4 0-22.3-5.8-7.9-5.9-9-17.3l16.8-2.3q0.7 5.5 4.5 8.4 3.9 2.8 10.7 2.8 5.8 0 8.9-1.9 3.2-1.9 3.2-5.5 0-3.2-3.3-5.1-3.3-1.9-10.9-3.6-8.1-1.9-13.7-4.5-5.7-2.7-8.5-7-2.9-4.3-2.9-10.8 0-6.9 3.8-12.3 3.7-5.3 10.4-8.2 6.7-3.1 15.5-3.1 11.5 0 18.8 5.6 7.2 5.5 8.3 15.1l-15.7 2.5q-0.9-4.2-4.1-6.5-3.2-2.4-8-2.4-4.9 0-7.8 2.1-3 2.1-3 5.8 0 3.3 2.8 5.4 2.9 2 10.5 3.8 8 1.9 13.9 4.3 5.8 2.3 8.9 6.4 3.2 4 3.2 11 0 6.8-3.9 12.1-3.8 5.2-10.9 8.1-6.9 2.9-16.2 2.9zm53.9-0.9h-18.3l33.9-74.2h15.1l32.6 74.2h-18.3l-6.3-15.2h-32.2zm22.9-53.3l-10.3 24h20.2zm-25.8 53.3h-18.3l33.9-74.2h15.1l32.6 74.2h-18.3l-6.3-15.2h-32.2zm22.9-53.3l-10.3 23.9h20.2zm69.7 53.4h-18v-74.3h18zm-2.9 0h-18v-74.2h18zm70.6 0h-50.7v-74.2h18v59.3h33.8zm-2.9 0h-50.7v-74.2h18v59.2h33.8zm47.2 1.1q-12.3 0.1-21.1-4.3-8.8-4.4-13.5-12.7-4.8-8.2-4.8-19.8 0-11.6 5-20.5 5-9 14.2-14 9.1-5 21.7-5 11.1 0 19.5 4.6 8.3 4.6 12.9 12.8 4.8 8.2 4.8 19.3 0 11.9-5 20.8-4.9 8.8-13.7 13.8-8.7 4.9-20 5zm-0.6-15.2q9.3 0 15.2-6.4 5.8-6.4 5.8-17.8 0-10-5.3-15.8-5.3-6-14.2-6-6.5 0-11.4 3-5 3.1-7.9 8.5-2.7 5.3-2.7 12.6 0 10.4 5.4 16.2 5.5 5.7 15.1 5.7zm-2.3 15.2q-12.3 0.1-21.1-4.3-8.8-4.4-13.5-12.7-4.8-8.2-4.8-19.8 0-11.6 5-20.5 5-9 14.2-14 9.1-5 21.7-5 11.1 0 19.4 4.6 8.4 4.6 13 12.8 4.8 8.2 4.8 19.3 0 11.9-5 20.8-4.9 8.8-13.7 13.8-8.7 4.9-20 5zm-0.6-15.2q9.3 0 15.2-6.4 5.8-6.4 5.8-17.8 0-10-5.3-15.8-5.3-6-14.2-6-6.5 0-11.4 3-5 3.1-7.9 8.5-2.7 5.3-2.7 12.6 0 10.4 5.4 16.2 5.5 5.7 15.1 5.7zm74.5 14.1h-18v-74.2h18v32.1l30.4-32.1h21.5l-35.5 37.1q2.5 1.3 4.5 3.3 2.1 1.9 3.7 4.3l6.8 10.4q1.8 2.8 3.9 4.1 2.2 1.1 5.3 1.1 2.1 0 4-0.4 1.8-0.5 3.7-1.7l4.1 13.2q-2.3 1.8-6.2 2.8-3.7 1.1-7.8 1.1-14.4 0-21.5-10.9l-9.3-14.2q-1.7-2.5-3.3-3.8-1.7-1.3-4.3-1.8zm-2.9 0h-18v-74.2h18v32.1l30.4-32.1h21.5l-35.5 37.1q2.5 1.3 4.5 3.3 2.1 2 3.7 4.4l6.8 10.3q1.8 2.8 3.9 4.1 2.2 1.1 5.3 1.1 2.1 0 4-0.4 1.8-0.5 3.7-1.7l4.1 13.2q-2.3 1.8-6.2 2.8-3.7 1.1-7.8 1.1-14.4 0-21.5-10.9l-9.3-14.2q-1.7-2.5-3.3-3.8-1.7-1.3-4.3-1.7z"/><path class="a" d="m202.5 254.6q-17.5 0-19.3-15.4l5.3-0.7q1.2 6 4.5 8.7 3.4 2.6 9.9 2.6 5.4 0 8.5-2.3 3.1-2.4 3.1-6.6 0-2.7-1.3-4.3-1.3-1.6-4-2.6-2.6-1.1-6.6-1.9-4.9-1.1-8.5-2.5-3.6-1.5-5.6-4.3-2-2.7-2-7.6 0-4.1 2.1-7.4 2.2-3.3 6-5.1 3.9-1.9 8.8-1.9 6.8 0 11.1 3.5 4.4 3.5 5.2 9.8l-5 0.8q-1-4.8-3.8-7.1-2.8-2.2-7.7-2.2-5 0-8.1 2.6-2.9 2.5-2.9 6.8 0 4.6 3.1 6.6 3.1 2.1 9.5 3.3 4.9 1 8.3 2.5 3.5 1.4 5.3 4 1.8 2.6 1.8 6.9 0 4.1-2.3 7.2-2.2 3.1-6.2 4.9-4 1.7-9.2 1.7zm-2 0q-17.5 0-19.3-15.4l5.4-0.7q1.1 6 4.4 8.7 3.4 2.6 9.9 2.6 5.5 0 8.5-2.3 3.1-2.4 3.1-6.6 0-2.7-1.3-4.3-1.2-1.6-3.9-2.6-2.6-1.1-6.6-1.9-4.9-1.1-8.5-2.5-3.7-1.5-5.7-4.3-2-2.7-2-7.6 0-4.1 2.2-7.4 2.2-3.3 6-5.1 3.8-1.9 8.7-1.9 6.8 0 11.1 3.5 4.4 3.5 5.2 9.8l-4.9 0.8q-1.1-4.8-3.9-7.1-2.7-2.2-7.6-2.2-5.1 0-8.1 2.6-3 2.5-3 6.8 0 4.6 3.1 6.6 3.2 2.1 9.5 3.3 4.9 1 8.3 2.5 3.5 1.4 5.3 4 1.9 2.6 1.9 6.9 0 4.1-2.3 7.2-2.3 3.1-6.3 4.9-4 1.7-9.2 1.7zm84.1 0q-6.3 0-9.5-3.2-3.2-3.2-3.2-8.6l0.3-19.4h-6.6v-4.4h6.6l0.1-7.3h5.4v7.3h12.8v4.4h-12.9l-0.2 19q0 3.4 1.7 5.5 1.9 2 5.8 2 1.7 0 3.1-0.3 1.5-0.5 3.2-1.7l1.7 4.1q-1.6 1.4-3.8 2-2.2 0.6-4.5 0.6zm-2 0q-6.3 0-9.5-3.2-3.2-3.2-3.1-8.6l0.2-19.4h-6.5v-4.4h6.6l0.1-7.3h5.4l-0.1 7.3h12.8v4.4h-12.9l-0.2 19q0 3.4 1.8 5.5 1.8 2 5.7 2 1.7 0 3.2-0.3 1.5-0.5 3.1-1.7l1.8 4.1q-1.6 1.4-3.9 2-2.2 0.6-4.5 0.6zm68 0q-5.6 0-8.5-3.7-3-3.7-3-10.1l0.2-21.8h5.4l-0.2 21.1q-0.1 4.6 1.7 7.1 1.8 2.6 5.7 2.6 3.7 0 6.6-2.9 2.9-2.9 4.6-9.6 1.7-6.8 1.7-18.3h5.2v35h-5.5l0.5-11.5q-2.1 6.2-5.9 9.2-3.8 2.9-8.5 2.9zm-2 0q-5.5 0-8.5-3.7-3-3.7-3-10.1l0.3-21.8h5.4l-0.2 21.1q-0.1 4.6 1.7 7.1 1.7 2.6 5.6 2.6 3.8 0 6.7-2.9 2.9-2.9 4.5-9.6 1.7-6.8 1.8-18.3h5.2v35h-5.5l0.4-11.5q-2.1 6.2-5.8 9.2-3.8 2.9-8.6 2.9zm101.1-52.7h5.4v52.1h-5.5l0.3-8.2q-2.1 4-5.6 6.4-3.5 2.4-7.9 2.4-4.7 0-7.9-2.1-3.2-2.1-4.9-5.8-1.7-3.7-1.7-8.5 0-5.9 2.2-10.3 2.3-4.5 6.3-7 4-2.5 9.2-2.5 3.4 0 6 1.3 2.8 1.3 4.3 3.7l-0.2-4.4zm-9.9 21.1q-5.6 0-8.9 4-3.4 4.1-3.4 10.7 0 5.7 2.6 9 2.6 3.2 7 3.2 3.6 0 6.5-2.1 2.9-2 4.6-5.6 1.6-3.6 1.6-8.3 0-5-2.7-7.9-2.6-3-7.3-3zm8-21.1h5.4v52.1h-5.5l0.2-8.2q-2.1 4.1-5.5 6.5-3.5 2.3-8 2.3-4.7 0-7.8-2.1-3.2-2.1-4.9-5.7-1.7-3.8-1.7-8.6 0-5.9 2.2-10.3 2.2-4.5 6.2-7 4-2.5 9.3-2.5 3.3 0 6 1.3 2.7 1.4 4.2 3.7l-0.1-4.4zm-10 21.1q-5.5 0-8.9 4.1-3.3 4-3.3 10.7 0 5.7 2.5 8.9 2.6 3.2 7.1 3.2 3.6 0 6.5-2.1 2.9-2 4.5-5.6 1.6-3.6 1.6-8.2 0-5.1-2.6-8-2.7-3-7.4-3zm69.7-4h5.4v35h-5.4zm2.9-7.9q-1.8 0-2.8-1.1-0.9-1-0.9-2.5 0-1.4 0.9-2.4 1.1-1.1 2.8-1.1 1.7 0 2.6 1.1 1.1 1 1.1 2.4 0 1.5-1.1 2.5-0.9 1.1-2.6 1.1zm-4.8 7.9h5.3v35h-5.3zm2.8-7.9q-1.8 0-2.7-1.1-1-1-1-2.4 0-1.5 1-2.5 1-1.1 2.7-1.1 1.7 0 2.7 1.1 1 1 1 2.5 0 1.4-1 2.4-1 1.1-2.7 1.1zm74.2 7.3q7.7 0 12.1 4.7 4.4 4.7 4.4 12.7 0 5.3-2.2 9.6-2.2 4.3-6.1 6.7-3.9 2.5-9.2 2.5-7.8 0-12.2-4.7-4.5-4.7-4.5-12.8 0-5.3 2.2-9.5 2.2-4.3 6.2-6.7 4-2.5 9.3-2.5zm-1 31.5q5.3 0 8.6-3.9 3.3-3.9 3.3-10.2 0-6.1-2.9-9.4-2.8-3.4-7.9-3.4-3.7 0-6.4 1.9-2.7 1.7-4.3 4.9-1.5 3.2-1.5 7.3 0 6.2 2.9 9.5 3 3.3 8.2 3.3zm-0.9-31.5q7.6 0 12 4.7 4.4 4.7 4.4 12.7 0 5.3-2.2 9.6-2.1 4.3-6.1 6.7-3.9 2.5-9.2 2.5-7.7 0-12.2-4.7-4.4-4.7-4.4-12.8 0-5.3 2.1-9.5 2.2-4.3 6.2-6.7 4-2.5 9.4-2.5zm-1.1 31.5q5.4 0 8.6-3.9 3.3-3.9 3.3-10.2 0-6.1-2.9-9.4-2.8-3.4-7.8-3.4-3.8 0-6.5 1.9-2.7 1.7-4.2 4.9-1.5 3.2-1.5 7.3 0 6.2 2.9 9.5 2.9 3.3 8.1 3.3z"/><path fill-rule="evenodd" class="a" d="m135.8 45.1c3.5 0.2 9.4 0.4 13.4 0.5 7.6 0 9.1 0.3 15.1 2.2 8.9 2.8 13 5.7 15.7 11.1 0.6 1.1 2.2 3.4 3.7 4.9 3.7 4 5.3 7.9 6.1 15.1 0.3 3.4 1 7.4 1.5 9 0.8 2.7 1.2 3.2 4.4 5.1 1.9 1.2 4.3 3.1 5.1 4.2l1.6 2.2 0.2 11.9c0.2 13.6-0.3 17.5-2.9 24.2-2 5.4-6.1 10.2-9.2 10.9-2.3 0.5-3.1 1.4-3.1 3 0 1.6-1 3.8-2 4.5-1.9 1.2-5.4 0.3-8.1-2.3-1.4-1.2-1.8-1.4-4.1-0.9-2.2 0.4-2.6 0.6-2.5 1.6 0.4 2.4 3.3 7.7 6.6 12 5.7 7.6 11.7 12.1 26 19.7 4.5 2.4 8.3 4.5 8.2 4.5-0.1 0.1-2.5-0.1-5.3-0.5-15.7-2.1-37 6.5-55.7 22.5-2.9 2.4-5.2 4.2-5.2 4.1 0-0.2 2.2-3.5 4.9-7.3 5.3-7.5 9.3-14 9.3-14.8 0-0.3-2.1 1.7-4.7 4.5l-4.8 5 4.8-8.3c4-7.1 7.5-14.5 6.9-14.5-0.2 0-1.6 1.9-3.3 4.2-4.2 5.6-4.7 5.7-2 0.2 2.6-5 5.8-14.5 5.4-15.8-0.2-0.4-1.1 1-2.3 3-1 2-2 3.6-2.1 3.6-0.1-0.2 0.5-2.3 1.2-5 0.8-2.6 1.5-5.8 1.8-7.1 0.3-1.9-0.1-1.4-2.2 3-2.6 5.3-7.5 13.6-7.9 13.2-0.1-0.1 1.1-3.8 2.7-8.2 1.6-4.4 3.3-9.4 3.8-11.2l1-3.3-3 3.3-3 3.2 1.8-3.8c1-2 1.7-3.8 1.5-4-0.5-0.5-5.3 4.9-8.1 9.3-3.2 4.9-3.4 4.7-1.7-1.6 1.5-5.4 1.5-5.4-0.4-3.7-2.6 2.5-6.8 8.5-8.7 12.3-0.9 2.1-1.8 3.6-1.9 3.5-0.6-0.5 2.2-9.7 4-12.9 3-5.6 9.4-11.6 14.1-13.1 1.1-0.3 7.2-0.8 13.4-1 10.3-0.4 11.5-0.6 14.5-1.9 4.1-2 6.9-4.3 8.3-7.1 1.5-2.9 1.5-4.5-0.1-5.4-2.5-1.3-5.6-0.2-11.5 3.9-6.9 4.8-13.2 7.9-17.8 8.6-15.7 2.6-17.6 2.5-20.2-0.9-1.5-2-3.1-7.6-3.2-10.9 0-1.3 0.3-1 1.8 1.6 3.1 5.4 6.8 7.3 14.2 7.3 8.7 0 15.5-2.5 25.2-9.4 7.3-5 11.3-8.6 12.5-10.8 1.1-2.1 0.9-2.6-2-4.1-3.3-1.7-11.5-8.7-13-11.2-1.9-2.9-1.5-6.1 1-8.6 2-2.2 6.4-3.9 9.5-3.9 2 0 2 0.1-0.8 0.9-2.9 0.9-5.9 2.6-5.5 3 0.1 0.1 1-0.1 1.9-0.6 2.5-1.3 9.5-2.3 12.6-1.8 1.7 0.2 2.5 0.2 2.3-0.2-0.2-0.3-3.3-2.3-6.7-4.3-13.9-8.1-15.6-9.7-20.1-20.6-3.4-8.1-6.2-12.6-10.3-16.3-3.6-3.2-7.9-4.9-14.4-5.9-5.3-0.8-13 0.1-15.8 1.6-0.9 0.5-1 0.8-0.4 0.6 0.7-0.2 3.5-0.5 6.2-0.7 6.5-0.4 11.6 0.8 16 3.8 9.4 6.6 12.4 23.6 6.2 35.1-1.5 2.9-9.1 13-9.1 12.1 0-0.2 0.5-2.4 1.2-4.8 0.7-2.4 1.2-4.7 1-5-0.2-0.7-8.6 9.3-11.3 13.6l-1.7 2.4-4.2-4.2c-2.4-2.4-6.8-6.1-9.9-8.4-5.5-4-5.8-4-2.1 0.2l1.8 2-2.9-1.6c-1.6-0.8-3-1.5-3.2-1.4-0.3 0.4 2.7 3.4 5.2 5.3 2 1.6 2 1.6 0.4 1.1-0.9-0.3-2.4-1-3.4-1.5-2.3-1.2-2.2-0.5 0.5 2.3l2.2 2.2-1.7-0.4-1.7-0.4 1.3 2.6c0.8 1.4 1.7 4.3 2.2 6.3 0.4 2 1.3 5 2 6.5 0.7 1.6 0.9 2.5 0.5 2.1-2.1-2.1-1.4 1.5 1.3 6.1l1.4 2.3-1.9-1.7c-1.1-1-1.9-1.5-1.9-1.2 0 0.9 2.4 4.7 4.7 7.5 2.1 2.6 1.8 2.6-1.5 0.2-3.3-2.4-3.6-2.5-2.4-0.6 1.9 3 3.5 4.4 7.1 6.7l3.6 2.2-3.1 0.3c-6.3 0.9-14.8 8.1-19.7 16.8-1.3 2.6-2.3 4.7-2.2 4.8 0.1 0.2 1-0.8 2-2 3.3-4.4 3.7-3.5 0.5 1.5-5.5 8.8-8 17.1-7.9 26.3l0.1 5.6 0.5-4.6c0.9-8.7 3.7-18.5 6.1-21.9 0.9-1.1 1-1.1 0.6-0.1-2.7 7.1-3.4 9.6-4.2 14.8-1.8 11.7 0.8 21.4 8.5 31.6l3.2 4.3-2.6-1.6c-5.7-3.6-8-5.4-12.2-9.4-4.8-4.6-7-7.4-9.6-12.6-1.5-3.1-1.7-3.3-1.7-1.7 0 1 0.4 3.4 0.8 5.4 0.5 1.9 0.8 3.6 0.6 3.7-0.3 0.4-3-5.4-4.1-8.7-1.3-4.4-1.1-10.3 0.6-23.5 0.8-6.2 1.5-12.7 1.5-14.5v-3.3l-2.9-1c-5.7-2-9.6-5.9-15.3-15.1-5.1-8.5-8.9-14-12.4-18.2-4.1-5-5-7-5-10.8 0-8.9 6.2-19 20.3-33.1 4.5-4.5 9.2-9.7 10.2-11.3 3.6-5.6 7-8.1 14.9-10.9 2.9-1.1 7.2-2.3 9.4-2.7 2.3-0.5 6-1.5 8.3-2.4 2.3-0.8 5.6-1.7 7.4-2 1.8-0.3 6.1-0.4 9.5-0.2zm20.8 3.4l-3.9-0.3 4.5 1.2c6.3 1.6 10.6 3.6 13.5 6.4 1.3 1.3 2.5 2 2.5 1.7 0-1.4-6-6.2-9.3-7.5-1.9-0.7-5.2-1.4-7.3-1.5zm-43.4 7.5c-3 0.5-7.1 4.9-8.8 9.2-3.9 10.4-2.8 21 3.8 36.7 5.3 12.7 6.3 17.6 4.9 24.5-2.5 11.5-9.6 19-18.1 19-5.5 0-9.7-2.7-13.8-8.7l-1.9-2.8 3.8 3.6c5.8 5.4 6.7 5.8 2 0.8-2.3-2.5-6.5-8.1-9.4-12.5-2.9-4.4-6.8-9.9-8.6-12.4-4.4-5.7-5.1-7.8-4.2-12.2 0.4-1.9 1.1-4.4 1.6-5.6 0.7-1.9 0.7-2-0.2-0.8-1.6 2-4.3 8.1-4.7 10.7-0.5 3.5 0.5 5.9 4.2 10.2 4 4.6 5.4 6.6 11.6 16.9 2.6 4.5 6.1 9.5 7.7 11.1 10.9 11.2 26.9 5.8 32.9-11.2 1.1-3.1 1.4-5.2 1.4-9.9 0-7.7-0.9-11.1-5.8-21.6-4.8-10.1-5.2-11-6-15.7-0.9-5.1-0.7-5.8 0.5-2.1 1.1 3.6 4.5 10.1 3.9 7.7-0.1-0.8-0.7-3.2-1.3-5.3-0.5-2.2-0.9-6.5-1-10.1 0-5.5 0.1-6.6 1.4-8.9 1.8-3.4 4.5-6.3 7.3-7.8 2.6-1.3 2.9-1.8 0.6-1.1-3 0.9-4 1.4-6 2.8-2.8 2.1-2.8 1.4 0-1.8 1.3-1.5 2.3-2.8 2.2-2.7zm31.5 5.3c-8 0-13.7 4.1-17.8 12.7-2.5 5.1-2.2 5.9 0.6 1.7 3.9-6 9.2-8.8 15.7-8.4 4.1 0.3 7.4 2 8.7 4.5 0.9 1.6 1.9 1.7 1.5 0.1-0.2-0.6-0.1-1 0.2-0.9 0.2 0.2 0.8 1.6 1.2 3.1l0.8 2.9 0.5-2.1c1.3-4.6-0.9-9.8-5.2-12.3-1.7-1-3.3-1.3-6.2-1.3zm28.8 2.6c-1.3 1.2-1.5 2.1-1.5 4.8 0 1.8 0.5 4.2 1 5.5l0.9 2.2 0.4-2.1 0.4-2.1 0.6 1.8 0.6 1.7 1.5-2.6c1.8-3.3 4.1-4.7 5.8-3.7 2.9 1.8-0.4-3.6-3.5-5.6-2.6-1.8-4.5-1.7-6.2 0.1zm-33.8 9.9c-2.3 0-5.5 0.9-5 1.3 0.1 0.2 1.8-0.1 3.8-0.5 3.3-0.7 3.4-0.8 1.2-0.8zm43.9 1c-0.2 0.3 0.3 0.7 1.1 0.8 0.9 0.2 1.5 0.3 1.5 0.1 0-0.5-2.4-1.3-2.6-0.9zm-44 3.4c-0.4 1 0.2 2 1.3 2 1.2 0 1.6-1.1 0.8-2-0.9-1.2-1.7-1.2-2.1 0zm42.8 0.9c-0.5 0.8 0.1 1.7 1.2 1.7 0.5 0 0.8-0.5 0.8-1.2 0-1.2-1.4-1.6-2-0.5zm-48.8 1.3c-1.3 1.2-0.8 2.7 1.4 4.5 2.8 2.3 2.1 2.4-1.7 0.3-2.5-1.2-2.8-1.3-2.3-0.4 2.1 3.9 9.3 5.8 13.5 3.5l1.7-0.9-2.7 0.3c-1.5 0.2-3.4 0.1-4.4-0.3-1.3-0.4-1.4-0.6-0.6-0.6 1 0 0.9-0.3-0.7-1.6-1.3-0.9-2.1-2.2-2.3-3.5-0.5-2.2-0.8-2.5-1.9-1.3zm13.5 0.6c-0.5-0.9-0.6-0.9-0.6 0.3 0 0.8-0.3 1.9-0.7 2.6-0.5 1-0.4 1.1 0.5 1 0.6-0.2 1.1-0.8 1.3-1.5 0.1-0.7-0.1-1.8-0.5-2.4zm-3.8 1.7c-0.6 0.3-2 0.5-3.1 0.4-2.2-0.3-2.7 0.3-0.9 1.3 1.7 0.9 2.7 0.7 4.3-0.5 1.6-1.4 1.4-2.1-0.3-1.2zm39.9 0.7c-2 0-2.2 0.1-1.7 0.8 0.8 0.9 3.6 0.8 3.9-0.1 0.2-0.4-0.9-0.7-2.2-0.7zm2.4 14.1c-3.1 0.9-4.9 2.9-4.4 4.9 0.4 1.8 1.2 2 1.6 0.4 0.6-2.1 3.2-3.2 8.1-3.5 2.6-0.1 5.5 0 6.5 0.4 2.1 0.8 2.4 0.2 0.7-1.4-1.5-1.3-9.1-1.8-12.5-0.8zm5.1 7.8c-0.2-0.2-0.3 0.1-0.3 0.8 0 0.6 0.2 0.8 0.4 0.3 0.1-0.4 0.1-0.9-0.1-1.1zm7.4 4.6c-0.5 0.3-0.7 0.7-0.5 0.9 0.3 0.3 0.8 0.1 1.2-0.2 0.9-0.9 0.4-1.4-0.7-0.7zm-16.4 0.9c1.3 1 2.5 1.1 3 0.3 0.1-0.3-0.3-0.6-1-0.9-2.5-0.6-3.2-0.4-2 0.6zm16.9 4.2c-0.5 0.6-2.2 2-3.9 3.3-2.3 1.7-3.3 2.8-3.8 4.6-0.7 2.2-0.6 2.7 0.8 5.5 2 3.8 2.1 7.4 0.4 11.1-0.6 1.4-1.1 2.7-0.9 2.8 0.4 0.5 4-4.3 5.4-7.4 2-4.2 3.1-8.8 3.6-14.9 0.4-5.4-0.1-6.9-1.6-5zm-40.6-0.3c1.5 0 1.2 0.2-1.7 1.3-2 0.8-4.1 1.6-4.7 1.9-2.3 1-0.3-1 2.2-2.2 1.3-0.5 3.3-1 4.2-1zm7.2 5.8c-0.7 0.3-2 0.6-3 0.6-1 0-4.2 0.7-7 1.5-4.7 1.1-5.1 1.2-3.9 0.3 0.8-0.6 2.5-1.5 3.8-2 2.5-0.9 12.2-1.2 10.1-0.4zm3.7 5.1c-0.4 0.3-15.7 3.8-16.7 3.8-1.5 0 4-2.5 7.5-3.2 3.6-0.8 9.8-1.2 9.2-0.6zm-5.2 7l1.5-0.1-1.5 0.5c-0.9 0.2-3 0.5-4.8 0.4h-3.2l3.2-0.4c1.8-0.2 3.9-0.4 4.8-0.4z"/></svg>